# xmcd CD database file
#
# Track frame offsets:
#	150
#	33282
#	57755
#	83782
#	93010
#	117500
#	135690
#	162575
#	188432
#	191860
#	233917
#	244455
#	276145
#
# Disc length: 4102 seconds
#
# Revision: 2
# Processed by: cddbd v1.5.2PL0 Copyright (c) Steve Scherf et al.
# Submitted via: CDex 1.50
#
DISCID=b010040d
DTITLE=Propellerheads - Decksanddrumsandrockandroll
DYEAR=1998
DGENRE=Drum and Bass
TTITLE0=Take California
TTITLE1=Echo And Bounce
TTITLE2=Velvet Pants
TTITLE3=Better?
TTITLE4=Oh Yeah?
TTITLE5=History Repeating (Featuring Miss Shirley Bassey)
TTITLE6=Winning Style
TTITLE7=Bang On!
TTITLE8=A Number Of Microphones
TTITLE9=On Her Majesty's Secret Service
TTITLE10=Bigger?
TTITLE11=Cominagetcha
TTITLE12=Spybreak!
EXTD=YEAR: 1998
EXTT0=
EXTT1=
EXTT2=
EXTT3=
EXTT4=
EXTT5=
EXTT6=
EXTT7=
EXTT8=
EXTT9=
EXTT10=
EXTT11=
EXTT12=
PLAYORDER=
